<!DOCTYPE svg PUBLIC "-//W3C//DTD SVG 1.1//EN" "http://www.w3.org/Graphics/SVG/1.1/DTD/svg11.dtd">
<!-- Uploaded to: SVG Repo, www.svgrepo.com, Transformed by: SVG Repo Mixer Tools -->
<svg fill="#ffffff" version="1.1" id="Capa_1" xmlns="http://www.w3.org/2000/svg" xmlns:xlink="http://www.w3.org/1999/xlink" width="800px" height="800px" viewBox="0 0 48.865 48.865" xml:space="preserve" stroke="#ffffff">
<g id="SVGRepo_bgCarrier" stroke-width="0"/>
<g id="SVGRepo_tracerCarrier" stroke-linecap="round" stroke-linejoin="round"/>
<g id="SVGRepo_iconCarrier"> <g> <path d="M45.424,14.347c4.418,0,4.607-1.15,0.424-2.57L32.009,4.083c-4.185-1.419-10.968-1.419-15.152,0L3.018,11.777 c-4.184,1.419-3.994,2.57,0.424,2.57H6.85h0.277c-0.172,0.295-0.277,0.634-0.277,1v23.5H4.058c-1.933,0-3.5,1.567-3.5,3.5 c0,1.934,1.567,3.5,3.5,3.5h40.75c1.933,0,3.5-1.566,3.5-3.5c0-1.933-1.567-3.5-3.5-3.5h-2.792v-23.5c0-0.366-0.106-0.705-0.277-1 h0.277H45.424z M20.932,38.847h-7.083v-23.5c0-0.366-0.106-0.705-0.277-1h0.277h7.083h0.277c-0.172,0.295-0.277,0.634-0.277,1 V38.847z M35.016,15.347v23.5h-7.083v-23.5c0-0.366-0.106-0.705-0.277-1h0.277h7.083h0.277 C35.12,14.642,35.016,14.98,35.016,15.347z"/> </g> </g>
</svg>